<?xml version="1.0" standalone="no"?>
<!DOCTYPE svg PUBLIC "-//W3C//DTD SVG 20010904//EN"
 "http://www.w3.org/TR/2001/REC-SVG-20010904/DTD/svg10.dtd">
<svg version="1.0" xmlns="http://www.w3.org/2000/svg"
 width="354.000000pt" height="354.000000pt" viewBox="0 0 354.000000 354.000000"
 preserveAspectRatio="xMidYMid meet">

<g transform="translate(0.000000,354.000000) scale(0.100000,-0.100000)"
fill="#000000" stroke="none">
<path d="M1571 2983 c-2 -25 -54 -72 -134 -121 -121 -74 -173 -124 -194 -183
-10 -28 -31 -62 -46 -77 l-29 -27 9 30 c11 39 7 235 -5 247 -5 5 -13 -20 -19
-64 -7 -48 -27 -110 -59 -183 -30 -68 -48 -126 -49 -151 -1 -23 -8 -52 -16
-64 -12 -19 -14 -8 -11 105 4 142 -5 155 -37 51 -28 -90 -44 -213 -39 -301 4
-84 -6 -101 -16 -27 -4 30 -21 73 -45 112 -41 68 -68 91 -58 49 3 -13 9 -58
12 -99 9 -106 24 -179 47 -223 11 -22 21 -37 24 -35 2 2 -5 21 -15 42 -19 37
-34 114 -46 234 -7 76 2 75 43 -1 26 -50 27 -59 29 -217 2 -222 8 -282 38
-384 95 -327 357 -568 695 -638 77 -16 118 -19 215 -14 118 5 258 34 280 58 7
8 4 9 -10 4 -99 -37 -176 -49 -310 -49 -166 0 -249 19 -392 88 -292 142 -482
430 -500 757 -4 74 -2 116 6 136 7 17 46 60 87 97 103 92 155 190 134 251 -6
17 -9 15 -24 -15 -10 -18 -51 -69 -92 -113 -41 -43 -74 -83 -74 -89 0 -10 102
96 151 157 25 32 29 34 29 15 0 -41 -48 -116 -112 -177 -82 -77 -92 -84 -83
-53 4 13 9 42 11 65 3 46 47 161 72 186 10 9 48 28 87 43 85 32 147 71 200
126 l40 42 -35 -7 c-41 -7 -167 -66 -213 -98 -34 -24 -32 -19 26 54 49 62 101
78 248 78 121 0 181 15 236 59 41 32 43 47 3 26 -18 -9 -58 -15 -107 -16 -43
0 -114 -4 -158 -8 -44 -4 -81 -7 -83 -5 -8 6 152 96 218 123 278 111 616 67
855 -111 127 -95 217 -206 286 -352 108 -232 105 -533 -8 -758 -13 -27 -19
-48 -14 -48 11 0 63 122 85 200 37 129 39 323 6 451 -82 317 -314 560 -625
655 -83 26 -103 28 -260 28 -156 0 -177 -2 -258 -27 -49 -15 -110 -39 -138
-52 -60 -31 -64 -26 -6 8 85 50 166 159 154 206 -3 9 -5 11 -6 4z m-27 -75
c-28 -49 -58 -76 -147 -134 -56 -37 -112 -76 -124 -87 -37 -33 -26 -1 14 44
28 31 243 186 261 189 2 0 0 -6 -4 -12z m-368 -237 c-6 -61 -41 -139 -87 -191
l-31 -35 5 35 c3 20 24 77 47 128 23 51 44 109 47 129 6 35 7 36 15 12 6 -13
7 -48 4 -78z m384 -37 c-19 -9 -73 -18 -120 -20 -47 -2 -113 -6 -147 -8 -67
-4 -81 5 -35 22 45 18 62 20 202 20 130 1 134 1 100 -14z m-564 -270 c-7 -38
-21 -85 -30 -104 -16 -35 -16 -34 -11 56 4 83 24 196 43 241 14 35 13 -124 -2
-193z m314 171 c-31 -37 -96 -79 -170 -111 -44 -18 -80 -30 -80 -26 1 14 91
78 162 114 80 41 109 49 88 23z"/>
<path d="M1472 2411 c-18 -55 -39 -102 -47 -105 -25 -9 -17 -44 21 -86 35 -39
69 -51 90 -30 11 11 139 60 157 60 6 0 -3 -10 -21 -21 -18 -12 -31 -24 -28
-26 2 -2 22 7 45 21 42 27 163 76 187 76 7 0 38 9 69 21 44 16 55 25 55 43 0
49 -86 95 -127 69 -17 -11 -280 -93 -299 -93 -2 0 -4 23 -4 51 0 53 -30 119
-54 119 -6 0 -26 -45 -44 -99z"/>
<path d="M1807 2250 c-12 -9 -76 -35 -142 -58 -163 -55 -215 -78 -215 -96 0
-27 35 -37 97 -27 l58 9 -29 -22 c-68 -50 -66 -55 9 -15 44 23 87 46 95 51 8
5 62 26 120 47 88 31 106 41 108 60 7 49 -60 83 -101 51z"/>
<path d="M1885 2089 c-33 -5 -109 -24 -170 -43 -60 -18 -137 -41 -170 -51 -76
-21 -105 -35 -119 -58 -9 -15 -6 -23 19 -43 17 -13 44 -27 61 -30 31 -6 48 1
334 147 19 10 47 21 61 24 l25 6 -22 -88 c-41 -158 -27 -348 33 -453 63 -109
128 -151 249 -158 80 -4 80 -4 107 27 34 41 43 90 28 157 -15 67 -56 121 -141
192 -101 82 -103 81 -54 -16 38 -75 44 -95 44 -151 l0 -64 -45 5 c-63 8 -90
29 -113 91 -46 122 -37 303 19 373 16 20 29 43 29 50 0 20 -79 94 -99 93 -9
-1 -43 -5 -76 -10z"/>
<path d="M1677 1903 c-4 -3 -7 -21 -7 -38 0 -17 -7 -55 -16 -84 -15 -52 -16
-53 -47 -47 -104 21 -187 18 -187 -7 0 -15 103 -85 137 -93 32 -8 29 -28 -9
-54 -18 -12 -25 -19 -15 -16 27 8 21 -7 -29 -73 -45 -61 -98 -107 -144 -128
-22 -10 -19 -12 30 -12 87 -1 123 14 174 71 26 28 61 75 79 104 26 44 36 53
52 48 11 -3 40 -8 64 -11 48 -7 71 10 71 52 0 22 -42 68 -72 78 -22 8 -22 8 1
90 l19 68 -26 29 c-25 28 -60 39 -75 23z"/>
<path d="M2557 1454 c-9 -10 2 -24 19 -24 8 0 14 7 14 15 0 15 -21 21 -33 9z"/>
<path d="M2457 1325 c-7 -16 8 -29 23 -20 15 9 12 35 -4 35 -8 0 -16 -7 -19
-15z"/>
<path d="M2340 1220 c0 -11 7 -20 15 -20 8 0 15 9 15 20 0 11 -7 20 -15 20 -8
0 -15 -9 -15 -20z"/>
<path d="M2205 1151 c-8 -15 3 -31 21 -31 9 0 14 7 12 17 -4 20 -24 28 -33 14z"/>
</g>
</svg>
